<mxfile host="app.diagrams.net" modified="2023-11-02T15:42:48.192Z" agent="Mozilla/5.0 (Windows NT 10.0; Win64; x64) AppleWebKit/537.36 (KHTML, like Gecko) Chrome/118.0.0.0 Safari/537.36" etag="MNXido6uosTePCY4TMsN" version="22.0.8" type="google">
  <diagram name="Trang-1" id="d2mzderQY7q__Y2j8yeC">
    <mxGraphModel grid="1" page="1" gridSize="10" guides="1" tooltips="1" connect="1" arrows="1" fold="1" pageScale="1" pageWidth="827" pageHeight="1169" math="0" shadow="0">
      <root>
        <mxCell id="0" />
        <mxCell id="1" parent="0" />
        <mxCell id="JPWKX9_ztqwPhxjWy2_--1" value="" style="rounded=0;whiteSpace=wrap;html=1;fillColor=#0050ef;strokeColor=#001DBC;fontColor=#ffffff;" vertex="1" parent="1">
          <mxGeometry x="150" y="220" width="70" height="180" as="geometry" />
        </mxCell>
        <mxCell id="JPWKX9_ztqwPhxjWy2_--2" value="" style="rounded=0;whiteSpace=wrap;html=1;fillColor=#ffe6cc;strokeColor=#d79b00;" vertex="1" parent="1">
          <mxGeometry x="240" y="380" width="70" height="20" as="geometry" />
        </mxCell>
        <mxCell id="JPWKX9_ztqwPhxjWy2_--8" value="" style="rounded=0;whiteSpace=wrap;html=1;fillColor=#0050ef;fontColor=#ffffff;strokeColor=#001DBC;" vertex="1" parent="1">
          <mxGeometry x="550" y="220" width="70" height="180" as="geometry" />
        </mxCell>
        <mxCell id="JPWKX9_ztqwPhxjWy2_--9" value="" style="rounded=0;whiteSpace=wrap;html=1;fillColor=#ffe6cc;strokeColor=#d79b00;" vertex="1" parent="1">
          <mxGeometry x="460" y="380" width="70" height="20" as="geometry" />
        </mxCell>
        <mxCell id="JPWKX9_ztqwPhxjWy2_--10" value="" style="rounded=0;whiteSpace=wrap;html=1;fillColor=#ffe6cc;strokeColor=#d79b00;" vertex="1" parent="1">
          <mxGeometry x="460" y="360" width="70" height="20" as="geometry" />
        </mxCell>
        <mxCell id="JPWKX9_ztqwPhxjWy2_--11" value="" style="rounded=0;whiteSpace=wrap;html=1;fillColor=#ffe6cc;strokeColor=#d79b00;" vertex="1" parent="1">
          <mxGeometry x="460" y="340" width="70" height="20" as="geometry" />
        </mxCell>
        <mxCell id="JPWKX9_ztqwPhxjWy2_--12" value="" style="rounded=0;whiteSpace=wrap;html=1;fillColor=#ffe6cc;strokeColor=#d79b00;" vertex="1" parent="1">
          <mxGeometry x="460" y="320" width="70" height="20" as="geometry" />
        </mxCell>
        <mxCell id="JPWKX9_ztqwPhxjWy2_--13" value="" style="rounded=0;whiteSpace=wrap;html=1;fillColor=#ffe6cc;strokeColor=#d79b00;" vertex="1" parent="1">
          <mxGeometry x="460" y="300" width="70" height="20" as="geometry" />
        </mxCell>
        <mxCell id="JPWKX9_ztqwPhxjWy2_--14" value="" style="rounded=0;whiteSpace=wrap;html=1;fillColor=#ffe6cc;strokeColor=#d79b00;" vertex="1" parent="1">
          <mxGeometry x="460" y="280" width="70" height="20" as="geometry" />
        </mxCell>
        <mxCell id="JPWKX9_ztqwPhxjWy2_--15" value="" style="rounded=0;whiteSpace=wrap;html=1;fillColor=#ffe6cc;strokeColor=#d79b00;" vertex="1" parent="1">
          <mxGeometry x="460" y="260" width="70" height="20" as="geometry" />
        </mxCell>
        <mxCell id="JPWKX9_ztqwPhxjWy2_--17" value="" style="rounded=0;whiteSpace=wrap;html=1;fillColor=#ffe6cc;strokeColor=#d79b00;" vertex="1" parent="1">
          <mxGeometry x="460" y="240" width="70" height="20" as="geometry" />
        </mxCell>
        <mxCell id="JPWKX9_ztqwPhxjWy2_--19" value="" style="rounded=0;whiteSpace=wrap;html=1;fillColor=#ffe6cc;strokeColor=#d79b00;" vertex="1" parent="1">
          <mxGeometry x="460" y="220" width="70" height="20" as="geometry" />
        </mxCell>
        <mxCell id="JPWKX9_ztqwPhxjWy2_--21" value="" style="endArrow=none;html=1;rounded=0;exitX=1;exitY=0.5;exitDx=0;exitDy=0;entryX=0;entryY=0.5;entryDx=0;entryDy=0;" edge="1" parent="1" source="JPWKX9_ztqwPhxjWy2_--2" target="JPWKX9_ztqwPhxjWy2_--9">
          <mxGeometry width="50" height="50" relative="1" as="geometry">
            <mxPoint x="390" y="360" as="sourcePoint" />
            <mxPoint x="440" y="310" as="targetPoint" />
          </mxGeometry>
        </mxCell>
        <mxCell id="JPWKX9_ztqwPhxjWy2_--22" value="" style="endArrow=none;html=1;rounded=0;exitX=1;exitY=0.5;exitDx=0;exitDy=0;entryX=0;entryY=0.5;entryDx=0;entryDy=0;" edge="1" parent="1" source="JPWKX9_ztqwPhxjWy2_--2" target="JPWKX9_ztqwPhxjWy2_--10">
          <mxGeometry width="50" height="50" relative="1" as="geometry">
            <mxPoint x="320" y="400" as="sourcePoint" />
            <mxPoint x="470" y="400" as="targetPoint" />
          </mxGeometry>
        </mxCell>
        <mxCell id="JPWKX9_ztqwPhxjWy2_--23" value="" style="endArrow=none;html=1;rounded=0;exitX=1;exitY=0.5;exitDx=0;exitDy=0;entryX=0;entryY=0.75;entryDx=0;entryDy=0;" edge="1" parent="1" source="JPWKX9_ztqwPhxjWy2_--2" target="JPWKX9_ztqwPhxjWy2_--11">
          <mxGeometry width="50" height="50" relative="1" as="geometry">
            <mxPoint x="320" y="400" as="sourcePoint" />
            <mxPoint x="470" y="380" as="targetPoint" />
          </mxGeometry>
        </mxCell>
        <mxCell id="JPWKX9_ztqwPhxjWy2_--24" value="" style="endArrow=none;html=1;rounded=0;exitX=1;exitY=0.5;exitDx=0;exitDy=0;entryX=0;entryY=0.5;entryDx=0;entryDy=0;" edge="1" parent="1" source="JPWKX9_ztqwPhxjWy2_--2" target="JPWKX9_ztqwPhxjWy2_--12">
          <mxGeometry width="50" height="50" relative="1" as="geometry">
            <mxPoint x="320" y="400" as="sourcePoint" />
            <mxPoint x="470" y="365" as="targetPoint" />
          </mxGeometry>
        </mxCell>
        <mxCell id="JPWKX9_ztqwPhxjWy2_--25" value="" style="endArrow=none;html=1;rounded=0;exitX=1;exitY=0.5;exitDx=0;exitDy=0;entryX=0;entryY=0.5;entryDx=0;entryDy=0;" edge="1" parent="1" source="JPWKX9_ztqwPhxjWy2_--2" target="JPWKX9_ztqwPhxjWy2_--13">
          <mxGeometry width="50" height="50" relative="1" as="geometry">
            <mxPoint x="320" y="400" as="sourcePoint" />
            <mxPoint x="470" y="340" as="targetPoint" />
          </mxGeometry>
        </mxCell>
        <mxCell id="JPWKX9_ztqwPhxjWy2_--26" value="" style="endArrow=none;html=1;rounded=0;exitX=1;exitY=0.5;exitDx=0;exitDy=0;entryX=0;entryY=0.5;entryDx=0;entryDy=0;" edge="1" parent="1" source="JPWKX9_ztqwPhxjWy2_--2" target="JPWKX9_ztqwPhxjWy2_--14">
          <mxGeometry width="50" height="50" relative="1" as="geometry">
            <mxPoint x="320" y="400" as="sourcePoint" />
            <mxPoint x="470" y="320" as="targetPoint" />
          </mxGeometry>
        </mxCell>
        <mxCell id="JPWKX9_ztqwPhxjWy2_--27" value="" style="endArrow=none;html=1;rounded=0;exitX=1;exitY=0.5;exitDx=0;exitDy=0;entryX=0;entryY=0.5;entryDx=0;entryDy=0;" edge="1" parent="1" source="JPWKX9_ztqwPhxjWy2_--2" target="JPWKX9_ztqwPhxjWy2_--15">
          <mxGeometry width="50" height="50" relative="1" as="geometry">
            <mxPoint x="320" y="400" as="sourcePoint" />
            <mxPoint x="470" y="300" as="targetPoint" />
          </mxGeometry>
        </mxCell>
        <mxCell id="JPWKX9_ztqwPhxjWy2_--28" value="" style="endArrow=none;html=1;rounded=0;exitX=1;exitY=0.5;exitDx=0;exitDy=0;entryX=0;entryY=0.5;entryDx=0;entryDy=0;" edge="1" parent="1" source="JPWKX9_ztqwPhxjWy2_--2" target="JPWKX9_ztqwPhxjWy2_--17">
          <mxGeometry width="50" height="50" relative="1" as="geometry">
            <mxPoint x="320" y="400" as="sourcePoint" />
            <mxPoint x="470" y="280" as="targetPoint" />
          </mxGeometry>
        </mxCell>
        <mxCell id="JPWKX9_ztqwPhxjWy2_--29" value="" style="endArrow=none;html=1;rounded=0;entryX=0;entryY=0.5;entryDx=0;entryDy=0;" edge="1" parent="1" target="JPWKX9_ztqwPhxjWy2_--19">
          <mxGeometry width="50" height="50" relative="1" as="geometry">
            <mxPoint x="310" y="390" as="sourcePoint" />
            <mxPoint x="480" y="290" as="targetPoint" />
          </mxGeometry>
        </mxCell>
        <mxCell id="JPWKX9_ztqwPhxjWy2_--31" value="Upsample:" style="text;html=1;strokeColor=none;fillColor=none;align=center;verticalAlign=middle;whiteSpace=wrap;rounded=0;fontStyle=1;fontSize=18;" vertex="1" parent="1">
          <mxGeometry x="327.5" y="160" width="126" height="30" as="geometry" />
        </mxCell>
        <mxCell id="JPWKX9_ztqwPhxjWy2_--33" value="Original data" style="text;html=1;strokeColor=none;fillColor=none;align=center;verticalAlign=middle;whiteSpace=wrap;rounded=0;fontStyle=1;horizontal=1;fontSize=15;" vertex="1" parent="1">
          <mxGeometry x="170" y="430" width="110" height="30" as="geometry" />
        </mxCell>
        <mxCell id="JPWKX9_ztqwPhxjWy2_--34" value="New data" style="text;html=1;strokeColor=none;fillColor=none;align=center;verticalAlign=middle;whiteSpace=wrap;rounded=0;fontStyle=1;horizontal=1;fontSize=15;" vertex="1" parent="1">
          <mxGeometry x="510" y="430" width="80" height="30" as="geometry" />
        </mxCell>
        <mxCell id="b7XSazpVwSv4lghGPlnA-1" value="Majority class" style="text;html=1;strokeColor=none;fillColor=none;align=center;verticalAlign=middle;whiteSpace=wrap;rounded=0;fontStyle=1;fontSize=13;" vertex="1" parent="1">
          <mxGeometry x="137.5" y="400" width="95" height="30" as="geometry" />
        </mxCell>
        <mxCell id="b7XSazpVwSv4lghGPlnA-2" value="Minority class" style="text;html=1;strokeColor=none;fillColor=none;align=center;verticalAlign=middle;whiteSpace=wrap;rounded=0;fontStyle=1;fontSize=13;" vertex="1" parent="1">
          <mxGeometry x="232.5" y="400" width="95" height="30" as="geometry" />
        </mxCell>
        <mxCell id="b7XSazpVwSv4lghGPlnA-3" value="Minority class" style="text;html=1;strokeColor=none;fillColor=none;align=center;verticalAlign=middle;whiteSpace=wrap;rounded=0;fontStyle=1;fontSize=13;" vertex="1" parent="1">
          <mxGeometry x="540" y="400" width="95" height="30" as="geometry" />
        </mxCell>
        <mxCell id="b7XSazpVwSv4lghGPlnA-4" value="Majority class" style="text;html=1;strokeColor=none;fillColor=none;align=center;verticalAlign=middle;whiteSpace=wrap;rounded=0;fontStyle=1;fontSize=13;" vertex="1" parent="1">
          <mxGeometry x="445" y="400" width="95" height="30" as="geometry" />
        </mxCell>
        <mxCell id="BDh9TUYGBeHMrdy6TbU8-2" value="Copies of the minority class" style="text;html=1;strokeColor=none;fillColor=none;align=center;verticalAlign=middle;whiteSpace=wrap;rounded=0;fontStyle=1;fontSize=15;rotation=-45;" vertex="1" parent="1">
          <mxGeometry x="300" y="255" width="140" height="30" as="geometry" />
        </mxCell>
        <mxCell id="BDh9TUYGBeHMrdy6TbU8-3" value="" style="endArrow=classic;html=1;rounded=0;fontSize=11;strokeWidth=2;" edge="1" parent="1">
          <mxGeometry width="50" height="50" relative="1" as="geometry">
            <mxPoint x="340" y="440" as="sourcePoint" />
            <mxPoint x="440" y="440" as="targetPoint" />
          </mxGeometry>
        </mxCell>
      </root>
    </mxGraphModel>
  </diagram>
</mxfile>
